<?xml version="1.0" encoding="UTF-8" standalone="no"?>
<!-- Created with Inkscape (http://www.inkscape.org/) -->

<svg
   xmlns:dc="http://purl.org/dc/elements/1.1/"
   xmlns:cc="http://creativecommons.org/ns#"
   xmlns:rdf="http://www.w3.org/1999/02/22-rdf-syntax-ns#"
   xmlns:svg="http://www.w3.org/2000/svg"
   xmlns="http://www.w3.org/2000/svg"
   xmlns:sodipodi="http://sodipodi.sourceforge.net/DTD/sodipodi-0.dtd"
   xmlns:inkscape="http://www.inkscape.org/namespaces/inkscape"
   width="9in"
   height="2.5in"
   viewBox="0 0 228.6 63.5"
   version="1.1"
   id="svg16"
   inkscape:version="0.92+devel unknown"
   sodipodi:docname="habsim.svg">
  <defs
     id="defs10" />
  <sodipodi:namedview
     id="base"
     pagecolor="#ffffff"
     bordercolor="#666666"
     borderopacity="1.0"
     inkscape:pageopacity="0.0"
     inkscape:pageshadow="2"
     inkscape:zoom="0.7"
     inkscape:cx="275.66618"
     inkscape:cy="256.27099"
     inkscape:document-units="mm"
     inkscape:current-layer="layer3"
     inkscape:document-rotation="0"
     showgrid="false"
     units="in"
     showguides="false"
     inkscape:window-width="1920"
     inkscape:window-height="1016"
     inkscape:window-x="0"
     inkscape:window-y="27"
     inkscape:window-maximized="1" />
  <metadata
     id="metadata13">
    <rdf:RDF>
      <cc:Work
         rdf:about="">
        <dc:format>image/svg+xml</dc:format>
        <dc:type
           rdf:resource="http://purl.org/dc/dcmitype/StillImage" />
        <dc:title></dc:title>
      </cc:Work>
    </rdf:RDF>
  </metadata>
  <g
     inkscape:label="Layer 1"
     inkscape:groupmode="layer"
     id="layer1"
     transform="translate(0,-233.5)"
     style="display:inline">
    <g
       aria-label="HABSim"
       style="font-style:normal;font-weight:normal;font-size:10.58333302px;font-family:sans-serif;fill:#000000;fill-opacity:1;stroke:none;stroke-width:0.26458332"
       id="text116"
       transform="translate(-19.927978,117.66055)">
      <path
         d="m 43.5288,154.60591 v -4.84012 c 0,-3.16088 0.592667,-3.85233 3.358445,-4.14866 l 0.987777,-0.0988 v -4.04989 h -17.3355 v 4.04989 l 0.987778,0.0988 c 2.765778,0.29633 3.358445,0.98778 3.358445,4.14866 v 17.03917 c 0,3.16089 -0.592667,3.85233 -3.358445,4.14867 l -0.987778,0.0988 v 4.04988 h 17.3355 v -4.04988 l -0.987777,-0.0988 C 44.121467,170.65729 43.5288,169.96585 43.5288,166.80496 v -7.40833 h 12.544778 v 7.40833 c 0,3.16089 -0.592667,3.85233 -3.358444,4.14867 l -0.987778,0.0988 v 4.04988 h 17.3355 v -4.04988 l -0.987778,-0.0988 c -2.765778,-0.29634 -3.358444,-0.98778 -3.358444,-4.14867 v -17.03917 c 0,-3.16088 0.592666,-3.85233 3.358444,-4.14866 l 0.987778,-0.0988 v -4.04989 h -17.3355 v 4.04989 l 0.987778,0.0988 c 2.765777,0.29633 3.358444,0.98778 3.358444,4.14866 v 4.84012 z"
         style="font-style:normal;font-variant:normal;font-weight:bold;font-stretch:normal;font-size:49.38888931px;font-family:'URW Bookman L';-inkscape-font-specification:'URW Bookman L Bold';stroke-width:0.26458332"
         id="path118"
         inkscape:connector-curvature="0" />
      <path
         d="m 92.389847,141.46846 h -7.655278 l -9.779,23.45972 c -1.876778,4.34623 -3.012723,5.58095 -5.7785,6.02545 l -0.790223,0.0988 v 4.04988 h 15.261167 v -4.04988 l -0.790222,-0.0988 c -2.667,-0.34572 -3.654778,-0.83961 -3.654778,-1.778 0,-0.29634 0.197556,-1.23472 0.4445,-1.778 l 1.580445,-4.24745 h 10.618611 l 1.481667,4.19806 c 0.345722,0.889 0.543277,1.72861 0.543277,2.12372 0,0.889 -0.889,1.3335 -2.913944,1.48167 l -1.234722,0.0988 v 4.04988 h 18.026943 v -4.04988 l -0.79022,-0.0988 c -2.76578,-0.49389 -3.21028,-0.98778 -4.8895,-5.38339 z m -9.581445,17.48367 3.753556,-9.63084 3.654777,9.63084 z"
         style="font-style:normal;font-variant:normal;font-weight:bold;font-stretch:normal;font-size:49.38888931px;font-family:'URW Bookman L';-inkscape-font-specification:'URW Bookman L Bold';stroke-width:0.26458332"
         id="path120"
         inkscape:connector-curvature="0" />
      <path
         d="m 106.64858,141.46846 v 4.04989 l 0.98777,0.0988 c 2.76578,0.29633 3.35845,0.98778 3.35845,4.14866 v 17.03917 c 0,3.16089 -0.59267,3.85233 -3.35845,4.14867 l -0.98777,0.0988 v 4.04988 h 19.75555 c 4.59317,0 6.71689,-0.39511 8.89,-1.62983 2.86456,-1.67922 4.59317,-4.79072 4.59317,-8.24794 0,-4.0005 -2.2225,-6.91445 -6.223,-8.19856 2.96333,-1.43228 4.74133,-4.09928 4.74133,-7.112 0,-2.2225 -0.98778,-4.39561 -2.71639,-5.92667 -1.97555,-1.778 -5.03766,-2.51883 -10.27289,-2.51883 z m 12.98927,13.38439 v -6.12422 c 0,-0.98778 0.0494,-1.43228 0.24695,-1.72861 0.29633,-0.54328 1.72861,-0.83961 3.80294,-0.83961 4.0005,0 6.32178,1.67922 6.32178,4.49438 0,2.667 -2.37067,4.19806 -6.42055,4.19806 z m 0,4.54378 h 4.09928 c 5.03767,0 7.16139,1.58044 7.16139,5.334 0,3.75355 -2.61761,5.97605 -6.96383,5.97605 -1.92617,0 -3.40784,-0.34572 -3.90172,-0.889 -0.29634,-0.34572 -0.39512,-0.74083 -0.39512,-1.62983 z"
         style="font-style:normal;font-variant:normal;font-weight:bold;font-stretch:normal;font-size:49.38888931px;font-family:'URW Bookman L';-inkscape-font-specification:'URW Bookman L Bold';stroke-width:0.26458332"
         id="path122"
         inkscape:connector-curvature="0" />
      <path
         d="m 163.87564,143.04891 c -1.97556,-1.3335 -5.03767,-2.2225 -7.90223,-2.2225 -7.40833,0 -12.74233,4.49438 -12.74233,10.76677 0,3.1115 1.38289,5.82789 3.75356,7.35895 1.72861,1.08655 2.71639,1.43228 8.54427,2.86455 l 4.8895,1.23473 c 3.70417,0.93838 4.74134,1.67922 4.74134,3.50661 0,2.56822 -2.56822,4.39561 -6.223,4.39561 -3.45722,0 -6.91445,-1.53106 -9.38389,-4.09928 -1.3335,-1.48167 -2.27189,-2.71639 -3.556,-5.03767 l -3.70417,1.23473 4.09928,12.59416 h 2.91394 l 0.69145,-2.42005 c 2.07433,1.53105 5.48217,2.51883 8.84061,2.51883 8.05039,0 13.97706,-5.03767 13.97706,-11.85333 0,-3.06211 -1.3335,-5.7785 -3.60539,-7.26017 -1.48167,-0.98778 -2.91395,-1.48167 -7.06261,-2.61761 l -4.49439,-1.18533 c -0.14817,-0.0494 -1.03717,-0.24695 -2.42006,-0.54328 -3.01272,-0.69145 -4.34622,-1.62984 -4.34622,-3.21028 0,-2.02494 2.27189,-3.45722 5.43278,-3.45722 2.81516,0 5.87727,1.3335 7.75405,3.35844 0.83961,0.889 1.48167,1.67922 3.06211,3.85234 l 3.556,-1.3335 -3.25966,-10.02595 h -2.96334 z"
         style="font-style:normal;font-variant:normal;font-weight:bold;font-stretch:normal;font-size:49.38888931px;font-family:'URW Bookman L';-inkscape-font-specification:'URW Bookman L Bold';stroke-width:0.26458332"
         id="path124"
         inkscape:connector-curvature="0" />
      <path
         style="font-style:normal;font-variant:normal;font-weight:bold;font-stretch:normal;font-size:49.38888931px;font-family:'URW Bookman L';-inkscape-font-specification:'URW Bookman L Bold';stroke-width:0.26458332"
         d="m 186.70102,150.30907 h -3.06211 l -8.69244,1.43228 v 4.0005 l 1.03716,0.0988 c 2.12373,0.19755 2.71639,1.03716 2.71639,4.04989 v 7.112 c 0,2.81516 -0.29633,3.35844 -2.17311,3.75355 l -1.58044,0.34572 v 4.0005 h 15.45872 v -4.0005 l -1.53106,-0.34572 c -1.87677,-0.4445 -2.17311,-0.93839 -2.17311,-3.75355 z"
         id="path133"
         inkscape:connector-curvature="0" />
      <path
         style="font-style:normal;font-variant:normal;font-weight:bold;font-stretch:normal;font-size:49.38888931px;font-family:'URW Bookman L';-inkscape-font-specification:'URW Bookman L Bold';stroke-width:0.30935541"
         d="m 185.12047,131.2384 c -3.04973,-1.00914 -6.66689,0.40177 -7.80957,3.09507 -1.1427,2.69331 -1.75305,10.62787 1.29668,11.63701 3.10729,1.02818 8.76693,-5.3515 9.93117,-8.09563 1.1427,-2.6933 -0.31101,-5.60827 -3.41828,-6.63645 z"
         id="path126"
         inkscape:connector-curvature="0" />
      <path
         d="m 204.49954,156.92718 c 1.87678,-1.23472 4.14867,-2.02494 5.67972,-2.02494 1.53106,0 2.17311,0.889 2.17311,2.91394 v 9.18634 c 0,2.81516 -0.29633,3.30905 -2.17311,3.85233 l -0.889,0.24694 v 4.0005 h 14.12523 v -4.0005 l -0.889,-0.24694 c -1.87678,-0.54328 -2.17312,-1.03717 -2.17312,-3.85233 v -10.07534 c 1.58045,-0.98777 3.85234,-1.72861 5.13645,-1.72861 1.67922,0 2.71639,1.08656 2.71639,2.81517 v 8.98878 c 0,2.81516 -0.29634,3.30905 -2.17311,3.85233 l -0.889,0.24694 v 4.0005 h 14.86605 v -4.0005 l -1.62983,-0.34572 c -1.82739,-0.39511 -2.17311,-0.93839 -2.17311,-3.75355 v -9.58145 c 0,-2.46944 -0.34572,-3.65478 -1.48167,-4.98828 -1.53105,-1.72861 -3.60539,-2.56822 -6.42055,-2.56822 -3.25967,0 -6.42056,0.889 -9.18634,2.56822 -1.778,-1.67922 -4.04989,-2.56822 -6.6675,-2.56822 -3.30905,0 -6.27239,0.79022 -8.79122,2.27189 v -1.82739 h -3.06211 l -7.90222,1.43228 v 4.0005 l 1.08655,0.0988 c 2.12372,0.19755 2.71639,1.08655 2.71639,4.04989 v 7.112 c 0,2.81516 -0.34572,3.35844 -2.17311,3.75355 l -1.62983,0.34572 v 4.0005 h 14.86605 v -4.0005 l -0.889,-0.24694 c -1.87678,-0.54328 -2.17311,-1.03717 -2.17311,-3.85233 z"
         style="font-style:normal;font-variant:normal;font-weight:bold;font-stretch:normal;font-size:49.38888931px;font-family:'URW Bookman L';-inkscape-font-specification:'URW Bookman L Bold';stroke-width:0.26458332"
         id="path128"
         inkscape:connector-curvature="0" />
    </g>
    <g
       inkscape:groupmode="layer"
       id="layer3"
       inkscape:label="Layer 3" />
    <g
       inkscape:groupmode="layer"
       id="layer2"
       inkscape:label="Layer 2"
       style="display:inline">
      <path
         style="fill:#0000ff;stroke-width:0.26458332"
         id="path224"
         d="m 7.209144,254.57173 c 3.328169,-0.43097 6.613145,-1.16432 9.902471,-1.82155 7.980087,-1.62778 16.040049,-2.81895 24.087149,-4.05709 8.631424,-1.39754 17.317239,-2.4257 26.020865,-3.24521 9.408746,-0.91801 18.844273,-1.5299 28.276293,-2.15203 7.426748,-0.46999 14.860238,-0.80884 22.300038,-0.96364 6.93419,-0.0425 13.86806,0.10579 20.80027,0.25629 6.53855,0.10977 13.07486,0.34947 19.60888,0.61307 5.597,0.34279 11.19863,0.60623 16.79484,0.96264 5.59963,0.31877 11.17311,0.92895 16.74773,1.52614 5.56322,0.57971 11.10824,1.32233 16.63935,2.15136 5.61874,0.79551 11.20721,1.78507 16.80903,2.68855 4.55598,0.75906 9.1027,1.57254 13.67369,2.23752 0,0 -3.19951,1.8864 -3.19951,1.8864 v 0 c -4.52496,-0.73132 -9.03657,-1.5393 -13.55444,-2.31247 -5.59229,-0.94282 -11.18527,-1.8888 -16.80034,-2.68705 -5.52905,-0.81369 -11.06596,-1.57861 -16.62695,-2.14273 -5.57552,-0.62176 -11.15778,-1.17513 -16.75978,-1.49998 -5.58412,-0.35213 -11.17118,-0.65606 -16.75708,-0.97704 -6.50578,-0.30008 -13.01516,-0.54454 -19.52716,-0.6537 -6.93015,-0.14754 -13.86211,-0.29243 -20.79414,-0.24301 -7.39225,0.15076 -14.77925,0.47961 -22.161168,0.89532 -9.42256,0.58708 -18.845312,1.20468 -28.240744,2.14206 -8.713342,0.84684 -17.404636,1.91277 -26.051777,3.28638 -8.124094,1.22993 -16.252714,2.47528 -24.288625,4.2055 -3.404684,0.7126 -6.803143,1.46869 -10.237508,2.02711 0,0 3.33862,-2.12288 3.33862,-2.12288 z"
         inkscape:connector-curvature="0" />
    </g>
  </g>
</svg>
